<svg xmlns="http://www.w3.org/2000/svg" width="1600" height="900"><path d="M781,489L653,414L642,491Z" fill="#ccc6b0" stroke="#ccc6b0" stroke-width="1.51"/><path d="M781,489L767,338L653,414Z" fill="#cdc7b0" stroke="#cdc7b0" stroke-width="1.51"/><path d="M767,338L677,258L653,414Z" fill="#d3ccb1" stroke="#d3ccb1" stroke-width="1.51"/><path d="M642,491L626,651L781,489Z" fill="#cac4b0" stroke="#cac4b0" stroke-width="1.51"/><path d="M642,491L492,552L626,651Z" fill="#cdc6b0" stroke="#cdc6b0" stroke-width="1.51"/><path d="M493,352L492,552L642,491Z" fill="#d1cab1" stroke="#d1cab1" stroke-width="1.51"/><path d="M493,352L642,491L653,414Z" fill="#d2cbb1" stroke="#d2cbb1" stroke-width="1.51"/><path d="M677,258L493,352L653,414Z" fill="#d6cfb1" stroke="#d6cfb1" stroke-width="1.51"/><path d="M781,489L956,415L767,338Z" fill="#cac4b0" stroke="#cac4b0" stroke-width="1.51"/><path d="M767,338L761,205L677,258Z" fill="#d7cfb2" stroke="#d7cfb2" stroke-width="1.51"/><path d="M981,544L956,415L781,489Z" fill="#c5c0ae" stroke="#c5c0ae" stroke-width="1.51"/><path d="M626,651L824,697L781,489Z" fill="#c6c0af" stroke="#c6c0af" stroke-width="1.51"/><path d="M970,219L761,205L767,338Z" fill="#d5cdb1" stroke="#d5cdb1" stroke-width="1.51"/><path d="M677,258L477,258L493,352Z" fill="#dcd4b2" stroke="#dcd4b2" stroke-width="1.51"/><path d="M934,653L981,544L781,489Z" fill="#c3bfaf" stroke="#c3bfaf" stroke-width="1.51"/><path d="M824,697L934,653L781,489Z" fill="#c3beaf" stroke="#c3beaf" stroke-width="1.51"/><path d="M492,552L537,705L626,651Z" fill="#ccc6b0" stroke="#ccc6b0" stroke-width="1.51"/><path d="M626,651L761,830L824,697Z" fill="#c3beaf" stroke="#c3beaf" stroke-width="1.51"/><path d="M493,352L362,411L492,552Z" fill="#d6ceb1" stroke="#d6ceb1" stroke-width="1.51"/><path d="M528,63L477,258L677,258Z" fill="#e0d7b3" stroke="#e0d7b3" stroke-width="1.51"/><path d="M761,205L692,114L677,258Z" fill="#dbd3b2" stroke="#dbd3b2" stroke-width="1.51"/><path d="M809,87L692,114L761,205Z" fill="#dad2b2" stroke="#dad2b2" stroke-width="1.51"/><path d="M981,544L1056,512L956,415Z" fill="#c4bfaf" stroke="#c4bfaf" stroke-width="1.51"/><path d="M956,415L970,219L767,338Z" fill="#cfc8b1" stroke="#cfc8b1" stroke-width="1.51"/><path d="M1055,674L1056,512L981,544Z" fill="#c1bdae" stroke="#c1bdae" stroke-width="1.51"/><path d="M351,253L362,411L493,352Z" fill="#dfd5b3" stroke="#dfd5b3" stroke-width="1.51"/><path d="M492,552L363,657L537,705Z" fill="#cfc9b0" stroke="#cfc9b0" stroke-width="1.51"/><path d="M1061,348L970,219L956,415Z" fill="#cdc7b0" stroke="#cdc7b0" stroke-width="1.51"/><path d="M1056,512L1061,348L956,415Z" fill="#c6c1af" stroke="#c6c1af" stroke-width="1.51"/><path d="M616,834L761,830L626,651Z" fill="#c5c0af" stroke="#c5c0af" stroke-width="1.51"/><path d="M824,697L908,786L934,653Z" fill="#c0bcae" stroke="#c0bcae" stroke-width="1.51"/><path d="M362,411L337,494L492,552Z" fill="#d6ceb2" stroke="#d6ceb2" stroke-width="1.51"/><path d="M934,653L1055,674L981,544Z" fill="#c0bcae" stroke="#c0bcae" stroke-width="1.51"/><path d="M761,830L908,786L824,697Z" fill="#c0bbae" stroke="#c0bbae" stroke-width="1.51"/><path d="M537,705L616,834L626,651Z" fill="#c9c3b0" stroke="#c9c3b0" stroke-width="1.51"/><path d="M488,796L616,834L537,705Z" fill="#c9c4b0" stroke="#c9c4b0" stroke-width="1.51"/><path d="M970,219L809,87L761,205Z" fill="#d7d0b2" stroke="#d7d0b2" stroke-width="1.51"/><path d="M337,494L363,657L492,552Z" fill="#d4ccb1" stroke="#d4ccb1" stroke-width="1.51"/><path d="M363,657L488,796L537,705Z" fill="#cdc7b0" stroke="#cdc7b0" stroke-width="1.51"/><path d="M908,786L1055,674L934,653Z" fill="#bfbaae" stroke="#bfbaae" stroke-width="1.51"/><path d="M1216,231L1089,195L1061,348Z" fill="#d0c9b0" stroke="#d0c9b0" stroke-width="1.51"/><path d="M477,258L351,253L493,352Z" fill="#e0d7b4" stroke="#e0d7b4" stroke-width="1.51"/><path d="M362,411L258,492L337,494Z" fill="#d8cfb2" stroke="#d8cfb2" stroke-width="1.51"/><path d="M391,121L351,253L477,258Z" fill="#e7dcb4" stroke="#e7dcb4" stroke-width="1.51"/><path d="M692,114L528,63L677,258Z" fill="#dfd5b3" stroke="#dfd5b3" stroke-width="1.51"/><path d="M688,-44L528,63L692,114Z" fill="#e0d7b3" stroke="#e0d7b3" stroke-width="1.51"/><path d="M970,219L969,105L809,87Z" fill="#d7cfb1" stroke="#d7cfb1" stroke-width="1.51"/><path d="M1089,195L969,105L970,219Z" fill="#d5cdb1" stroke="#d5cdb1" stroke-width="1.51"/><path d="M337,494L218,643L363,657Z" fill="#d4cdb1" stroke="#d4cdb1" stroke-width="1.51"/><path d="M236,407L258,492L362,411Z" fill="#d9d1b2" stroke="#d9d1b2" stroke-width="1.51"/><path d="M1061,348L1089,195L970,219Z" fill="#d1cab1" stroke="#d1cab1" stroke-width="1.51"/><path d="M1240,368L1061,348L1056,512Z" fill="#c6c0af" stroke="#c6c0af" stroke-width="1.51"/><path d="M351,253L236,407L362,411Z" fill="#ded5b3" stroke="#ded5b3" stroke-width="1.51"/><path d="M528,63L391,121L477,258Z" fill="#e5dbb4" stroke="#e5dbb4" stroke-width="1.51"/><path d="M187,195L236,407L351,253Z" fill="#e4d9b4" stroke="#e4d9b4" stroke-width="1.51"/><path d="M363,657L349,775L488,796Z" fill="#d0c9b1" stroke="#d0c9b1" stroke-width="1.51"/><path d="M475,923L662,943L616,834Z" fill="#c6c0af" stroke="#c6c0af" stroke-width="1.51"/><path d="M218,643L349,775L363,657Z" fill="#d1cab1" stroke="#d1cab1" stroke-width="1.51"/><path d="M616,834L662,943L761,830Z" fill="#c3beaf" stroke="#c3beaf" stroke-width="1.51"/><path d="M761,830L804,964L908,786Z" fill="#bebaae" stroke="#bebaae" stroke-width="1.51"/><path d="M475,923L616,834L488,796Z" fill="#c9c3af" stroke="#c9c3af" stroke-width="1.51"/><path d="M809,87L688,-44L692,114Z" fill="#dcd4b3" stroke="#dcd4b3" stroke-width="1.51"/><path d="M528,63L474,-54L391,121Z" fill="#e6ddb4" stroke="#e6ddb4" stroke-width="1.51"/><path d="M818,-70L688,-44L809,87Z" fill="#dcd4b2" stroke="#dcd4b2" stroke-width="1.51"/><path d="M662,943L804,964L761,830Z" fill="#c0bcae" stroke="#c0bcae" stroke-width="1.51"/><path d="M908,786L1103,797L1055,674Z" fill="#bdb9ae" stroke="#bdb9ae" stroke-width="1.51"/><path d="M1204,688L1245,518L1056,512Z" fill="#bfbbae" stroke="#bfbbae" stroke-width="1.51"/><path d="M1058,934L1103,797L908,786Z" fill="#bbb8ad" stroke="#bbb8ad" stroke-width="1.51"/><path d="M662,943L782,1079L804,964Z" fill="#c0bbae" stroke="#c0bbae" stroke-width="1.51"/><path d="M349,775L475,923L488,796Z" fill="#ccc6b0" stroke="#ccc6b0" stroke-width="1.51"/><path d="M258,492L218,643L337,494Z" fill="#d6ceb1" stroke="#d6ceb1" stroke-width="1.51"/><path d="M349,775L365,980L475,923Z" fill="#cdc6b0" stroke="#cdc6b0" stroke-width="1.51"/><path d="M86,561L218,643L258,492Z" fill="#d6ceb2" stroke="#d6ceb2" stroke-width="1.51"/><path d="M1204,688L1056,512L1055,674Z" fill="#bebbad" stroke="#bebbad" stroke-width="1.51"/><path d="M1245,518L1240,368L1056,512Z" fill="#c2bdae" stroke="#c2bdae" stroke-width="1.51"/><path d="M962,-36L809,87L969,105Z" fill="#d8d0b2" stroke="#d8d0b2" stroke-width="1.51"/><path d="M962,-36L818,-70L809,87Z" fill="#dad2b2" stroke="#dad2b2" stroke-width="1.51"/><path d="M1103,797L1204,688L1055,674Z" fill="#bcb8ad" stroke="#bcb8ad" stroke-width="1.51"/><path d="M1089,195L1126,104L969,105Z" fill="#d5cdb1" stroke="#d5cdb1" stroke-width="1.51"/><path d="M1211,123L1126,104L1089,195Z" fill="#d3ccb1" stroke="#d3ccb1" stroke-width="1.51"/><path d="M1240,368L1216,231L1061,348Z" fill="#cbc5b0" stroke="#cbc5b0" stroke-width="1.51"/><path d="M1081,-70L962,-36L969,105Z" fill="#d8d0b2" stroke="#d8d0b2" stroke-width="1.51"/><path d="M507,-168L474,-54L688,-44Z" fill="#e4dab4" stroke="#e4dab4" stroke-width="1.51"/><path d="M688,-44L474,-54L528,63Z" fill="#e4dab4" stroke="#e4dab4" stroke-width="1.51"/><path d="M391,121L187,195L351,253Z" fill="#e8ddb4" stroke="#e8ddb4" stroke-width="1.51"/><path d="M804,964L947,978L908,786Z" fill="#bcb9ae" stroke="#bcb9ae" stroke-width="1.51"/><path d="M1103,797L1258,840L1204,688Z" fill="#b9b6ad" stroke="#b9b6ad" stroke-width="1.51"/><path d="M947,978L1058,934L908,786Z" fill="#bbb7ad" stroke="#bbb7ad" stroke-width="1.51"/><path d="M218,643L226,791L349,775Z" fill="#d1cab1" stroke="#d1cab1" stroke-width="1.51"/><path d="M190,90L187,195L391,121Z" fill="#e9dfb4" stroke="#e9dfb4" stroke-width="1.51"/><path d="M236,407L86,561L258,492Z" fill="#d8d0b2" stroke="#d8d0b2" stroke-width="1.51"/><path d="M218,643L106,661L226,791Z" fill="#d2cbb1" stroke="#d2cbb1" stroke-width="1.51"/><path d="M1216,231L1211,123L1089,195Z" fill="#d2cbb1" stroke="#d2cbb1" stroke-width="1.51"/><path d="M1126,104L1081,-70L969,105Z" fill="#d6cfb2" stroke="#d6cfb2" stroke-width="1.51"/><path d="M1349,232L1211,123L1216,231Z" fill="#d1cab1" stroke="#d1cab1" stroke-width="1.51"/><path d="M804,964L782,1079L947,978Z" fill="#bdb9ae" stroke="#bdb9ae" stroke-width="1.51"/><path d="M1109,1118L1212,915L1058,934Z" fill="#b8b5ad" stroke="#b8b5ad" stroke-width="1.51"/><path d="M674,1088L782,1079L662,943Z" fill="#c1bdae" stroke="#c1bdae" stroke-width="1.51"/><path d="M257,955L365,980L349,775Z" fill="#cec7b0" stroke="#cec7b0" stroke-width="1.51"/><path d="M505,1119L674,1088L662,943Z" fill="#c5c0af" stroke="#c5c0af" stroke-width="1.51"/><path d="M505,1119L662,943L475,923Z" fill="#c7c2af" stroke="#c7c2af" stroke-width="1.51"/><path d="M818,-70L817,-161L688,-44Z" fill="#dcd4b2" stroke="#dcd4b2" stroke-width="1.51"/><path d="M951,-163L817,-161L818,-70Z" fill="#dad2b2" stroke="#dad2b2" stroke-width="1.51"/><path d="M951,-163L818,-70L962,-36Z" fill="#d9d1b2" stroke="#d9d1b2" stroke-width="1.51"/><path d="M69,357L86,561L236,407Z" fill="#dad2b2" stroke="#dad2b2" stroke-width="1.51"/><path d="M86,561L106,661L218,643Z" fill="#d5ceb1" stroke="#d5ceb1" stroke-width="1.51"/><path d="M226,791L257,955L349,775Z" fill="#cfc8b0" stroke="#cfc8b0" stroke-width="1.51"/><path d="M187,195L69,357L236,407Z" fill="#e2d8b4" stroke="#e2d8b4" stroke-width="1.51"/><path d="M222,-15L190,90L391,121Z" fill="#eadfb5" stroke="#eadfb5" stroke-width="1.51"/><path d="M1248,-48L1081,-70L1126,104Z" fill="#d6ceb1" stroke="#d6ceb1" stroke-width="1.51"/><path d="M86,205L69,357L187,195Z" fill="#e7ddb4" stroke="#e7ddb4" stroke-width="1.51"/><path d="M1240,368L1349,232L1216,231Z" fill="#cdc6b0" stroke="#cdc6b0" stroke-width="1.51"/><path d="M1245,518L1362,357L1240,368Z" fill="#c3bfaf" stroke="#c3bfaf" stroke-width="1.51"/><path d="M1204,688L1356,560L1245,518Z" fill="#bdb9ae" stroke="#bdb9ae" stroke-width="1.51"/><path d="M1412,653L1356,560L1204,688Z" fill="#bbb8ad" stroke="#bbb8ad" stroke-width="1.51"/><path d="M817,-161L683,-195L688,-44Z" fill="#ded5b3" stroke="#ded5b3" stroke-width="1.51"/><path d="M474,-54L353,-92L391,121Z" fill="#eadfb5" stroke="#eadfb5" stroke-width="1.51"/><path d="M1356,560L1362,357L1245,518Z" fill="#c0bcae" stroke="#c0bcae" stroke-width="1.51"/><path d="M507,-168L353,-92L474,-54Z" fill="#e8deb4" stroke="#e8deb4" stroke-width="1.51"/><path d="M683,-195L507,-168L688,-44Z" fill="#e1d8b3" stroke="#e1d8b3" stroke-width="1.51"/><path d="M1212,915L1258,840L1103,797Z" fill="#b8b5ad" stroke="#b8b5ad" stroke-width="1.51"/><path d="M1212,915L1103,797L1058,934Z" fill="#b9b6ad" stroke="#b9b6ad" stroke-width="1.51"/><path d="M1081,-70L951,-163L962,-36Z" fill="#d8d0b2" stroke="#d8d0b2" stroke-width="1.51"/><path d="M817,-161L951,-163L683,-195Z" fill="#dbd3b2" stroke="#dbd3b2" stroke-width="1.51"/><path d="M365,980L505,1119L475,923Z" fill="#cbc5b0" stroke="#cbc5b0" stroke-width="1.51"/><path d="M46,947L257,955L226,791Z" fill="#cfc8b1" stroke="#cfc8b1" stroke-width="1.51"/><path d="M960,1095L1058,934L947,978Z" fill="#bbb7ad" stroke="#bbb7ad" stroke-width="1.51"/><path d="M96,93L187,195L190,90Z" fill="#eadfb4" stroke="#eadfb4" stroke-width="1.51"/><path d="M96,93L86,205L187,195Z" fill="#eadfb5" stroke="#eadfb5" stroke-width="1.51"/><path d="M1204,-236L1058,-168L1081,-70Z" fill="#d6ceb1" stroke="#d6ceb1" stroke-width="1.51"/><path d="M1362,357L1349,232L1240,368Z" fill="#c9c3b0" stroke="#c9c3b0" stroke-width="1.51"/><path d="M674,1088L960,1095L782,1079Z" fill="#bebaae" stroke="#bebaae" stroke-width="1.51"/><path d="M782,1079L960,1095L947,978Z" fill="#bcb8ae" stroke="#bcb8ae" stroke-width="1.51"/><path d="M353,-92L222,-15L391,121Z" fill="#ebe0b5" stroke="#ebe0b5" stroke-width="1.51"/><path d="M345,1094L505,1119L365,980Z" fill="#cdc6b0" stroke="#cdc6b0" stroke-width="1.51"/><path d="M674,1088L505,1119L960,1095Z" fill="#c1bcae" stroke="#c1bcae" stroke-width="1.51"/><path d="M110,-35L96,93L190,90Z" fill="#ece1b5" stroke="#ece1b5" stroke-width="1.51"/><path d="M-59,372L-35,494L69,357Z" fill="#ded5b3" stroke="#ded5b3" stroke-width="1.51"/><path d="M1081,-70L1058,-168L951,-163Z" fill="#d8d0b2" stroke="#d8d0b2" stroke-width="1.51"/><path d="M951,-163L1204,-236L683,-195Z" fill="#d9d1b2" stroke="#d9d1b2" stroke-width="1.51"/><path d="M1248,-48L1126,104L1211,123Z" fill="#d4ccb1" stroke="#d4ccb1" stroke-width="1.51"/><path d="M1258,840L1336,817L1204,688Z" fill="#b9b6ad" stroke="#b9b6ad" stroke-width="1.51"/><path d="M1360,964L1336,817L1258,840Z" fill="#b7b4ad" stroke="#b7b4ad" stroke-width="1.51"/><path d="M1336,817L1412,653L1204,688Z" fill="#b9b7ad" stroke="#b9b7ad" stroke-width="1.51"/><path d="M1516,486L1505,375L1362,357Z" fill="#c2bdae" stroke="#c2bdae" stroke-width="1.51"/><path d="M1492,127L1368,126L1349,232Z" fill="#d0c9b0" stroke="#d0c9b0" stroke-width="1.51"/><path d="M255,1086L345,1094L365,980Z" fill="#cec7b0" stroke="#cec7b0" stroke-width="1.51"/><path d="M257,955L255,1086L365,980Z" fill="#cec7b0" stroke="#cec7b0" stroke-width="1.51"/><path d="M106,661L64,806L226,791Z" fill="#d2cbb1" stroke="#d2cbb1" stroke-width="1.51"/><path d="M-33,645L64,806L106,661Z" fill="#d4ccb1" stroke="#d4ccb1" stroke-width="1.51"/><path d="M-33,645L106,661L86,561Z" fill="#d6ceb1" stroke="#d6ceb1" stroke-width="1.51"/><path d="M1349,232L1368,126L1211,123Z" fill="#d1cab1" stroke="#d1cab1" stroke-width="1.51"/><path d="M1505,375L1349,232L1362,357Z" fill="#c8c2af" stroke="#c8c2af" stroke-width="1.51"/><path d="M1350,-18L1248,-48L1211,123Z" fill="#d4ccb1" stroke="#d4ccb1" stroke-width="1.51"/><path d="M69,357L-35,494L86,561Z" fill="#dad2b2" stroke="#dad2b2" stroke-width="1.51"/><path d="M-59,372L69,357L-89,231Z" fill="#e3dab4" stroke="#e3dab4" stroke-width="1.51"/><path d="M-35,494L-33,645L86,561Z" fill="#d8d0b2" stroke="#d8d0b2" stroke-width="1.51"/><path d="M1212,915L1360,964L1258,840Z" fill="#b6b4ad" stroke="#b6b4ad" stroke-width="1.51"/><path d="M960,1095L1109,1118L1058,934Z" fill="#bab6ad" stroke="#bab6ad" stroke-width="1.51"/><path d="M505,1119L1109,1118L960,1095Z" fill="#bdb9ae" stroke="#bdb9ae" stroke-width="1.51"/><path d="M81,1081L255,1086L257,955Z" fill="#cfc8b1" stroke="#cfc8b1" stroke-width="1.51"/><path d="M345,1094L-98,1123L505,1119Z" fill="#cec8b0" stroke="#cec8b0" stroke-width="1.51"/><path d="M-89,231L69,357L86,205Z" fill="#e7ddb4" stroke="#e7ddb4" stroke-width="1.51"/><path d="M-191,658L-87,842L-33,645Z" fill="#d4cdb1" stroke="#d4cdb1" stroke-width="1.51"/><path d="M-84,82L-89,231L86,205Z" fill="#ebe0b5" stroke="#ebe0b5" stroke-width="1.51"/><path d="M222,-15L110,-35L190,90Z" fill="#ede1b5" stroke="#ede1b5" stroke-width="1.51"/><path d="M102,-179L110,-35L222,-15Z" fill="#ede1b5" stroke="#ede1b5" stroke-width="1.51"/><path d="M228,-238L222,-15L353,-92Z" fill="#ebe0b5" stroke="#ebe0b5" stroke-width="1.51"/><path d="M507,-168L363,-238L353,-92Z" fill="#eadfb5" stroke="#eadfb5" stroke-width="1.51"/><path d="M683,-195L363,-238L507,-168Z" fill="#e6dcb4" stroke="#e6dcb4" stroke-width="1.51"/><path d="M1204,-236L363,-238L683,-195Z" fill="#ddd4b3" stroke="#ddd4b3" stroke-width="1.51"/><path d="M1516,486L1362,357L1356,560Z" fill="#bfbbae" stroke="#bfbbae" stroke-width="1.51"/><path d="M1368,126L1350,-18L1211,123Z" fill="#d2cbb1" stroke="#d2cbb1" stroke-width="1.51"/><path d="M1248,-48L1204,-236L1081,-70Z" fill="#d5ceb1" stroke="#d5ceb1" stroke-width="1.51"/><path d="M1484,-18L1350,-18L1368,126Z" fill="#d2cbb1" stroke="#d2cbb1" stroke-width="1.51"/><path d="M1543,680L1516,486L1412,653Z" fill="#bab7ad" stroke="#bab7ad" stroke-width="1.51"/><path d="M1412,653L1516,486L1356,560Z" fill="#bcb8ad" stroke="#bcb8ad" stroke-width="1.51"/><path d="M1494,845L1543,680L1412,653Z" fill="#b7b4ad" stroke="#b7b4ad" stroke-width="1.51"/><path d="M1262,1118L1360,964L1212,915Z" fill="#b6b4ad" stroke="#b6b4ad" stroke-width="1.51"/><path d="M64,806L46,947L226,791Z" fill="#d1cab1" stroke="#d1cab1" stroke-width="1.51"/><path d="M-87,842L46,947L64,806Z" fill="#d1cab1" stroke="#d1cab1" stroke-width="1.51"/><path d="M-184,495L-33,645L-35,494Z" fill="#d9d0b2" stroke="#d9d0b2" stroke-width="1.51"/><path d="M-84,82L86,205L96,93Z" fill="#ebe0b5" stroke="#ebe0b5" stroke-width="1.51"/><path d="M1540,195L1349,232L1505,375Z" fill="#cbc5b0" stroke="#cbc5b0" stroke-width="1.51"/><path d="M1540,195L1492,127L1349,232Z" fill="#cfc8b0" stroke="#cfc8b0" stroke-width="1.51"/><path d="M110,-35L-84,82L96,93Z" fill="#ede2b5" stroke="#ede2b5" stroke-width="1.51"/><path d="M363,-238L228,-238L353,-92Z" fill="#ebe0b5" stroke="#ebe0b5" stroke-width="1.51"/><path d="M1058,-168L1204,-236L951,-163Z" fill="#d7cfb2" stroke="#d7cfb2" stroke-width="1.51"/><path d="M1372,-189L1204,-236L1248,-48Z" fill="#d4cdb1" stroke="#d4cdb1" stroke-width="1.51"/><path d="M1372,-189L1248,-48L1350,-18Z" fill="#d4ccb1" stroke="#d4ccb1" stroke-width="1.51"/><path d="M1109,1118L1262,1118L1212,915Z" fill="#b7b4ad" stroke="#b7b4ad" stroke-width="1.51"/><path d="M1352,1123L1262,1118L1109,1118Z" fill="#b7b4ad" stroke="#b7b4ad" stroke-width="1.51"/><path d="M1494,845L1412,653L1336,817Z" fill="#b7b4ac" stroke="#b7b4ac" stroke-width="1.51"/><path d="M1686,253L1540,195L1505,375Z" fill="#c9c3b0" stroke="#c9c3b0" stroke-width="1.51"/><path d="M1494,845L1336,817L1360,964Z" fill="#b5b3ad" stroke="#b5b3ad" stroke-width="1.51"/><path d="M1654,397L1505,375L1516,486Z" fill="#c0bcae" stroke="#c0bcae" stroke-width="1.51"/><path d="M1537,991L1494,845L1360,964Z" fill="#b5b2ac" stroke="#b5b2ac" stroke-width="1.51"/><path d="M-55,-95L-84,82L110,-35Z" fill="#eee3b5" stroke="#eee3b5" stroke-width="1.51"/><path d="M46,947L81,1081L257,955Z" fill="#cfc9b1" stroke="#cfc9b1" stroke-width="1.51"/><path d="M255,1086L-98,1123L345,1094Z" fill="#cfc8b1" stroke="#cfc8b1" stroke-width="1.51"/><path d="M-56,978L81,1081L46,947Z" fill="#d1cab1" stroke="#d1cab1" stroke-width="1.51"/><path d="M228,-238L102,-179L222,-15Z" fill="#ece1b5" stroke="#ece1b5" stroke-width="1.51"/><path d="M-184,495L-35,494L-59,372Z" fill="#dbd3b2" stroke="#dbd3b2" stroke-width="1.51"/><path d="M-33,645L-87,842L64,806Z" fill="#d3ccb1" stroke="#d3ccb1" stroke-width="1.51"/><path d="M-236,397L-184,495L-59,372Z" fill="#ddd4b3" stroke="#ddd4b3" stroke-width="1.51"/><path d="M-205,269L-59,372L-89,231Z" fill="#e6dcb4" stroke="#e6dcb4" stroke-width="1.51"/><path d="M1657,100L1484,-18L1492,127Z" fill="#d0c9b1" stroke="#d0c9b1" stroke-width="1.51"/><path d="M1492,127L1484,-18L1368,126Z" fill="#d1cab1" stroke="#d1cab1" stroke-width="1.51"/><path d="M1262,1118L1352,1123L1360,964Z" fill="#b6b3ad" stroke="#b6b3ad" stroke-width="1.51"/><path d="M505,1119L1352,1123L1109,1118Z" fill="#bbb7ad" stroke="#bbb7ad" stroke-width="1.51"/><path d="M-184,495L-191,658L-33,645Z" fill="#d7cfb2" stroke="#d7cfb2" stroke-width="1.51"/><path d="M-87,842L-56,978L46,947Z" fill="#d1cab1" stroke="#d1cab1" stroke-width="1.51"/><path d="M-168,989L-56,978L-87,842Z" fill="#d1cab1" stroke="#d1cab1" stroke-width="1.51"/><path d="M1665,645L1634,536L1543,680Z" fill="#b9b6ad" stroke="#b9b6ad" stroke-width="1.51"/><path d="M1543,680L1634,536L1516,486Z" fill="#bbb7ad" stroke="#bbb7ad" stroke-width="1.51"/><path d="M1540,195L1657,100L1492,127Z" fill="#cfc8b0" stroke="#cfc8b0" stroke-width="1.51"/><path d="M1484,-18L1372,-189L1350,-18Z" fill="#d3cbb1" stroke="#d3cbb1" stroke-width="1.51"/><path d="M-181,129L-205,269L-89,231Z" fill="#eadfb5" stroke="#eadfb5" stroke-width="1.51"/><path d="M-184,495L-236,397L-191,658Z" fill="#d9d1b2" stroke="#d9d1b2" stroke-width="1.51"/><path d="M1634,536L1654,397L1516,486Z" fill="#bdb9ae" stroke="#bdb9ae" stroke-width="1.51"/><path d="M-84,82L-181,129L-89,231Z" fill="#ebe0b5" stroke="#ebe0b5" stroke-width="1.51"/><path d="M102,-179L-55,-95L110,-35Z" fill="#eee2b5" stroke="#eee2b5" stroke-width="1.51"/><path d="M-205,269L-236,397L-59,372Z" fill="#e2d8b3" stroke="#e2d8b3" stroke-width="1.51"/><path d="M-205,269L-239,-49L-236,397Z" fill="#eae0b5" stroke="#eae0b5" stroke-width="1.51"/><path d="M-239,-49L-181,129L-84,82Z" fill="#ede2b5" stroke="#ede2b5" stroke-width="1.51"/><path d="M1635,811L1665,645L1543,680Z" fill="#b7b4ad" stroke="#b7b4ad" stroke-width="1.51"/><path d="M1634,536L1787,516L1654,397Z" fill="#bdb9ae" stroke="#bdb9ae" stroke-width="1.51"/><path d="M1635,811L1543,680L1494,845Z" fill="#b5b3ad" stroke="#b5b3ad" stroke-width="1.51"/><path d="M1352,1123L1537,991L1360,964Z" fill="#b5b2ac" stroke="#b5b2ac" stroke-width="1.51"/><path d="M-55,-95L-239,-49L-84,82Z" fill="#eee3b5" stroke="#eee3b5" stroke-width="1.51"/><path d="M102,-179L-47,-170L-55,-95Z" fill="#eee3b5" stroke="#eee3b5" stroke-width="1.51"/><path d="M228,-238L-47,-170L102,-179Z" fill="#ede2b5" stroke="#ede2b5" stroke-width="1.51"/><path d="M1537,991L1635,811L1494,845Z" fill="#b4b2ac" stroke="#b4b2ac" stroke-width="1.51"/><path d="M-191,658L-221,790L-87,842Z" fill="#d3ccb1" stroke="#d3ccb1" stroke-width="1.51"/><path d="M-236,397L-221,790L-191,658Z" fill="#d6cfb2" stroke="#d6cfb2" stroke-width="1.51"/><path d="M1484,-18L1487,-234L1372,-189Z" fill="#d2cbb1" stroke="#d2cbb1" stroke-width="1.51"/><path d="M1654,397L1686,253L1505,375Z" fill="#c5c0af" stroke="#c5c0af" stroke-width="1.51"/><path d="M1785,214L1686,253L1837,383Z" fill="#c9c3b0" stroke="#c9c3b0" stroke-width="1.51"/><path d="M1686,253L1657,100L1540,195Z" fill="#cec7b0" stroke="#cec7b0" stroke-width="1.51"/><path d="M-56,978L-98,1123L81,1081Z" fill="#d1cab1" stroke="#d1cab1" stroke-width="1.51"/><path d="M-221,790L-168,989L-87,842Z" fill="#d1cab1" stroke="#d1cab1" stroke-width="1.51"/><path d="M1372,-189L1487,-234L1204,-236Z" fill="#d3ccb1" stroke="#d3ccb1" stroke-width="1.51"/><path d="M1672,-66L1487,-234L1484,-18Z" fill="#d1cab1" stroke="#d1cab1" stroke-width="1.51"/><path d="M-168,989L-98,1123L-56,978Z" fill="#d1cab1" stroke="#d1cab1" stroke-width="1.51"/><path d="M81,1081L-98,1123L255,1086Z" fill="#d0c9b1" stroke="#d0c9b1" stroke-width="1.51"/><path d="M-200,1134L1525,1126L1352,1123Z" fill="#bcb8ae" stroke="#bcb8ae" stroke-width="1.51"/><path d="M-200,1134L1352,1123L505,1119Z" fill="#c7c1af" stroke="#c7c1af" stroke-width="1.51"/><path d="M1352,1123L1525,1126L1537,991Z" fill="#b5b2ac" stroke="#b5b2ac" stroke-width="1.51"/><path d="M1537,991L1695,954L1635,811Z" fill="#b3b1ac" stroke="#b3b1ac" stroke-width="1.51"/><path d="M1781,668L1665,645L1776,778Z" fill="#b7b4ad" stroke="#b7b4ad" stroke-width="1.51"/><path d="M1781,668L1787,516L1665,645Z" fill="#b9b6ad" stroke="#b9b6ad" stroke-width="1.51"/><path d="M1665,645L1787,516L1634,536Z" fill="#bab7ad" stroke="#bab7ad" stroke-width="1.51"/><path d="M1777,-27L1672,-66L1657,100Z" fill="#d1cab1" stroke="#d1cab1" stroke-width="1.51"/><path d="M-216,-183L-239,-49L-55,-95Z" fill="#eee3b5" stroke="#eee3b5" stroke-width="1.51"/><path d="M-181,129L-239,-49L-205,269Z" fill="#ece1b5" stroke="#ece1b5" stroke-width="1.51"/><path d="M1776,778L1665,645L1635,811Z" fill="#b6b3ad" stroke="#b6b3ad" stroke-width="1.51"/><path d="M1657,100L1672,-66L1484,-18Z" fill="#d1cab1" stroke="#d1cab1" stroke-width="1.51"/><path d="M1785,214L1657,100L1686,253Z" fill="#cdc7b0" stroke="#cdc7b0" stroke-width="1.51"/><path d="M1637,1068L1695,954L1537,991Z" fill="#b3b1ac" stroke="#b3b1ac" stroke-width="1.51"/><path d="M1837,383L1686,253L1654,397Z" fill="#c5c0af" stroke="#c5c0af" stroke-width="1.51"/><path d="M1525,1126L1637,1068L1537,991Z" fill="#b4b1ac" stroke="#b4b1ac" stroke-width="1.51"/><path d="M1695,954L1776,778L1635,811Z" fill="#b4b2ac" stroke="#b4b2ac" stroke-width="1.51"/><path d="M1787,516L1837,383L1654,397Z" fill="#bfbbae" stroke="#bfbbae" stroke-width="1.51"/><path d="M1781,668L1837,383L1787,516Z" fill="#bcb8ad" stroke="#bcb8ad" stroke-width="1.51"/><path d="M1830,945L1837,383L1781,668Z" fill="#b8b4ad" stroke="#b8b4ad" stroke-width="1.51"/><path d="M-47,-170L-216,-183L-55,-95Z" fill="#eee3b5" stroke="#eee3b5" stroke-width="1.51"/><path d="M228,-238L-216,-183L-47,-170Z" fill="#eee3b5" stroke="#eee3b5" stroke-width="1.51"/><path d="M-98,1123L-200,1134L505,1119Z" fill="#d0c9b1" stroke="#d0c9b1" stroke-width="1.51"/><path d="M-168,989L-200,1134L-98,1123Z" fill="#d1cab1" stroke="#d1cab1" stroke-width="1.51"/><path d="M-221,790L-200,1134L-168,989Z" fill="#d1cab1" stroke="#d1cab1" stroke-width="1.51"/><path d="M1785,214L1830,112L1657,100Z" fill="#cec8b0" stroke="#cec8b0" stroke-width="1.51"/><path d="M1837,383L1830,112L1785,214Z" fill="#ccc6b0" stroke="#ccc6b0" stroke-width="1.51"/><path d="M1830,112L1777,-27L1657,100Z" fill="#d0c9b1" stroke="#d0c9b1" stroke-width="1.51"/><path d="M1672,-66L1676,-220L1487,-234Z" fill="#d1cab1" stroke="#d1cab1" stroke-width="1.51"/><path d="M1817,-181L1676,-220L1672,-66Z" fill="#d1cab1" stroke="#d1cab1" stroke-width="1.51"/><path d="M1776,778L1830,945L1781,668Z" fill="#b5b2ac" stroke="#b5b2ac" stroke-width="1.51"/><path d="M1695,954L1830,945L1776,778Z" fill="#b3b1ac" stroke="#b3b1ac" stroke-width="1.51"/><path d="M1777,1077L1830,945L1695,954Z" fill="#b3b1ac" stroke="#b3b1ac" stroke-width="1.51"/><path d="M1637,1068L1777,1077L1695,954Z" fill="#b3b1ac" stroke="#b3b1ac" stroke-width="1.51"/><path d="M1525,1126L1777,1077L1637,1068Z" fill="#b3b1ac" stroke="#b3b1ac" stroke-width="1.51"/><path d="M1777,-27L1817,-181L1672,-66Z" fill="#d1cab1" stroke="#d1cab1" stroke-width="1.51"/><path d="M1830,112L1817,-181L1777,-27Z" fill="#d1cab1" stroke="#d1cab1" stroke-width="1.51"/></svg>