<svg width="1440" height="900" xmlns="http://www.w3.org/2000/svg"><path d="M773,348L777,303L689,263Z" fill="rgb(255,227,132)" stroke="rgb(255,227,132)" stroke-width="1.51"></path><path d="M689,263L590,334L773,348Z" fill="rgb(255,228,134)" stroke="rgb(255,228,134)" stroke-width="1.51"></path><path d="M623,551L858,459L773,348Z" fill="rgb(255,225,122)" stroke="rgb(255,225,122)" stroke-width="1.51"></path><path d="M773,348L953,331L777,303Z" fill="rgb(255,226,127)" stroke="rgb(255,226,127)" stroke-width="1.51"></path><path d="M689,263L513,293L590,334Z" fill="rgb(255,229,139)" stroke="rgb(255,229,139)" stroke-width="1.51"></path><path d="M777,303L786,113L689,263Z" fill="rgb(255,229,138)" stroke="rgb(255,229,138)" stroke-width="1.51"></path><path d="M689,263L584,131L513,293Z" fill="rgb(255,230,144)" stroke="rgb(255,230,144)" stroke-width="1.51"></path><path d="M881,168L786,113L777,303Z" fill="rgb(255,228,137)" stroke="rgb(255,228,137)" stroke-width="1.51"></path><path d="M953,331L881,168L777,303Z" fill="rgb(255,227,129)" stroke="rgb(255,227,129)" stroke-width="1.51"></path><path d="M786,113L584,131L689,263Z" fill="rgb(255,230,144)" stroke="rgb(255,230,144)" stroke-width="1.51"></path><path d="M858,459L953,331L773,348Z" fill="rgb(255,225,122)" stroke="rgb(255,225,122)" stroke-width="1.51"></path><path d="M590,334L623,551L773,348Z" fill="rgb(255,227,128)" stroke="rgb(255,227,128)" stroke-width="1.51"></path><path d="M513,293L472,358L590,334Z" fill="rgb(255,229,140)" stroke="rgb(255,229,140)" stroke-width="1.51"></path><path d="M415,361L472,358L513,293Z" fill="rgb(255,230,142)" stroke="rgb(255,230,142)" stroke-width="1.51"></path><path d="M453,505L623,551L590,334Z" fill="rgb(255,227,129)" stroke="rgb(255,227,129)" stroke-width="1.51"></path><path d="M858,459L914,503L953,331Z" fill="rgb(255,223,117)" stroke="rgb(255,223,117)" stroke-width="1.51"></path><path d="M814,642L914,503L858,459Z" fill="rgb(255,222,111)" stroke="rgb(255,222,111)" stroke-width="1.51"></path><path d="M623,551L691,617L858,459Z" fill="rgb(255,223,117)" stroke="rgb(255,223,117)" stroke-width="1.51"></path><path d="M472,358L453,505L590,334Z" fill="rgb(255,228,136)" stroke="rgb(255,228,136)" stroke-width="1.51"></path><path d="M623,551L527,664L691,617Z" fill="rgb(255,224,116)" stroke="rgb(255,224,116)" stroke-width="1.51"></path><path d="M321,234L415,361L513,293Z" fill="rgb(255,231,147)" stroke="rgb(255,231,147)" stroke-width="1.51"></path><path d="M953,331L1015,221L881,168Z" fill="rgb(255,226,128)" stroke="rgb(255,226,128)" stroke-width="1.51"></path><path d="M881,168L970,100L786,113Z" fill="rgb(255,229,139)" stroke="rgb(255,229,139)" stroke-width="1.51"></path><path d="M1049,356L1015,221L953,331Z" fill="rgb(255,224,122)" stroke="rgb(255,224,122)" stroke-width="1.51"></path><path d="M415,361L453,505L472,358Z" fill="rgb(255,229,138)" stroke="rgb(255,229,138)" stroke-width="1.51"></path><path d="M914,503L1049,356L953,331Z" fill="rgb(255,223,116)" stroke="rgb(255,223,116)" stroke-width="1.51"></path><path d="M1015,221L970,100L881,168Z" fill="rgb(255,227,133)" stroke="rgb(255,227,133)" stroke-width="1.51"></path><path d="M691,617L814,642L858,459Z" fill="rgb(255,222,112)" stroke="rgb(255,222,112)" stroke-width="1.51"></path><path d="M914,503L1102,513L1049,356Z" fill="rgb(255,222,109)" stroke="rgb(255,222,109)" stroke-width="1.51"></path><path d="M584,131L472,78L513,293Z" fill="rgb(255,232,151)" stroke="rgb(255,232,151)" stroke-width="1.51"></path><path d="M644,-19L472,78L584,131Z" fill="rgb(255,234,157)" stroke="rgb(255,234,157)" stroke-width="1.51"></path><path d="M644,-19L584,131L786,113Z" fill="rgb(255,232,151)" stroke="rgb(255,232,151)" stroke-width="1.51"></path><path d="M781,-21L644,-19L786,113Z" fill="rgb(255,232,152)" stroke="rgb(255,232,152)" stroke-width="1.51"></path><path d="M925,-55L781,-21L786,113Z" fill="rgb(255,232,149)" stroke="rgb(255,232,149)" stroke-width="1.51"></path><path d="M415,361L362,470L453,505Z" fill="rgb(255,228,137)" stroke="rgb(255,228,137)" stroke-width="1.51"></path><path d="M453,505L527,664L623,551Z" fill="rgb(255,225,123)" stroke="rgb(255,225,123)" stroke-width="1.51"></path><path d="M238,311L362,470L415,361Z" fill="rgb(255,231,145)" stroke="rgb(255,231,145)" stroke-width="1.51"></path><path d="M419,618L527,664L453,505Z" fill="rgb(255,225,124)" stroke="rgb(255,225,124)" stroke-width="1.51"></path><path d="M691,617L684,783L814,642Z" fill="rgb(255,221,106)" stroke="rgb(255,221,106)" stroke-width="1.51"></path><path d="M472,78L321,234L513,293Z" fill="rgb(255,232,153)" stroke="rgb(255,232,153)" stroke-width="1.51"></path><path d="M814,642L976,640L914,503Z" fill="rgb(255,220,105)" stroke="rgb(255,220,105)" stroke-width="1.51"></path><path d="M816,812L976,640L814,642Z" fill="rgb(255,219,99)" stroke="rgb(255,219,99)" stroke-width="1.51"></path><path d="M362,470L419,618L453,505Z" fill="rgb(255,227,131)" stroke="rgb(255,227,131)" stroke-width="1.51"></path><path d="M970,100L925,-55L786,113Z" fill="rgb(255,230,143)" stroke="rgb(255,230,143)" stroke-width="1.51"></path><path d="M781,-21L775,-148L644,-19Z" fill="rgb(255,233,153)" stroke="rgb(255,233,153)" stroke-width="1.51"></path><path d="M1115,74L925,-55L970,100Z" fill="rgb(255,229,140)" stroke="rgb(255,229,140)" stroke-width="1.51"></path><path d="M1180,240L1115,74L1015,221Z" fill="rgb(255,226,125)" stroke="rgb(255,226,125)" stroke-width="1.51"></path><path d="M976,640L1102,513L914,503Z" fill="rgb(255,220,104)" stroke="rgb(255,220,104)" stroke-width="1.51"></path><path d="M472,78L301,106L321,234Z" fill="rgb(255,234,160)" stroke="rgb(255,234,160)" stroke-width="1.51"></path><path d="M439,-59L388,-4L472,78Z" fill="rgb(255,236,166)" stroke="rgb(255,236,166)" stroke-width="1.51"></path><path d="M439,-59L472,78L644,-19Z" fill="rgb(255,235,163)" stroke="rgb(255,235,163)" stroke-width="1.51"></path><path d="M511,836L684,783L527,664Z" fill="rgb(255,221,108)" stroke="rgb(255,221,108)" stroke-width="1.51"></path><path d="M527,664L684,783L691,617Z" fill="rgb(255,222,111)" stroke="rgb(255,222,111)" stroke-width="1.51"></path><path d="M388,-4L301,106L472,78Z" fill="rgb(255,235,164)" stroke="rgb(255,235,164)" stroke-width="1.51"></path><path d="M1180,240L1015,221L1049,356Z" fill="rgb(255,224,120)" stroke="rgb(255,224,120)" stroke-width="1.51"></path><path d="M1015,221L1115,74L970,100Z" fill="rgb(255,227,132)" stroke="rgb(255,227,132)" stroke-width="1.51"></path><path d="M574,-139L439,-59L644,-19Z" fill="rgb(255,235,161)" stroke="rgb(255,235,161)" stroke-width="1.51"></path><path d="M1193,355L1180,240L1049,356Z" fill="rgb(255,223,115)" stroke="rgb(255,223,115)" stroke-width="1.51"></path><path d="M925,-55L775,-148L781,-21Z" fill="rgb(255,232,150)" stroke="rgb(255,232,150)" stroke-width="1.51"></path><path d="M321,234L238,311L415,361Z" fill="rgb(255,232,151)" stroke="rgb(255,232,151)" stroke-width="1.51"></path><path d="M362,470L232,520L419,618Z" fill="rgb(255,228,134)" stroke="rgb(255,228,134)" stroke-width="1.51"></path><path d="M194,198L238,311L321,234Z" fill="rgb(255,233,157)" stroke="rgb(255,233,157)" stroke-width="1.51"></path><path d="M1102,513L1193,355L1049,356Z" fill="rgb(255,222,109)" stroke="rgb(255,222,109)" stroke-width="1.51"></path><path d="M775,-148L574,-139L644,-19Z" fill="rgb(255,233,156)" stroke="rgb(255,233,156)" stroke-width="1.51"></path><path d="M684,783L816,812L814,642Z" fill="rgb(255,219,100)" stroke="rgb(255,219,100)" stroke-width="1.51"></path><path d="M976,640L1140,736L1102,513Z" fill="rgb(255,218,94)" stroke="rgb(255,218,94)" stroke-width="1.51"></path><path d="M301,106L194,198L321,234Z" fill="rgb(255,235,161)" stroke="rgb(255,235,161)" stroke-width="1.51"></path><path d="M388,-4L267,84L301,106Z" fill="rgb(255,236,167)" stroke="rgb(255,236,167)" stroke-width="1.51"></path><path d="M217,6L267,84L388,-4Z" fill="rgb(255,237,170)" stroke="rgb(255,237,170)" stroke-width="1.51"></path><path d="M238,311L232,520L362,470Z" fill="rgb(255,230,144)" stroke="rgb(255,230,144)" stroke-width="1.51"></path><path d="M419,618L511,836L527,664Z" fill="rgb(255,223,115)" stroke="rgb(255,223,115)" stroke-width="1.51"></path><path d="M574,-139L313,-163L439,-59Z" fill="rgb(255,236,166)" stroke="rgb(255,236,166)" stroke-width="1.51"></path><path d="M313,-163L217,6L388,-4Z" fill="rgb(255,237,172)" stroke="rgb(255,237,172)" stroke-width="1.51"></path><path d="M775,-148L610,-205L574,-139Z" fill="rgb(255,234,157)" stroke="rgb(255,234,157)" stroke-width="1.51"></path><path d="M238,311L135,386L232,520Z" fill="rgb(255,232,148)" stroke="rgb(255,232,148)" stroke-width="1.51"></path><path d="M267,84L194,198L301,106Z" fill="rgb(255,235,165)" stroke="rgb(255,235,165)" stroke-width="1.51"></path><path d="M688,938L865,917L816,812Z" fill="rgb(255,217,88)" stroke="rgb(255,217,88)" stroke-width="1.51"></path><path d="M433,887L511,836L419,618Z" fill="rgb(255,222,112)" stroke="rgb(255,222,112)" stroke-width="1.51"></path><path d="M1180,240L1251,156L1115,74Z" fill="rgb(255,225,123)" stroke="rgb(255,225,123)" stroke-width="1.51"></path><path d="M1124,-103L1006,-160L925,-55Z" fill="rgb(255,230,141)" stroke="rgb(255,230,141)" stroke-width="1.51"></path><path d="M1316,184L1251,156L1180,240Z" fill="rgb(255,224,118)" stroke="rgb(255,224,118)" stroke-width="1.51"></path><path d="M925,-55L1006,-160L775,-148Z" fill="rgb(255,231,146)" stroke="rgb(255,231,146)" stroke-width="1.51"></path><path d="M775,-148L1089,-249L610,-205Z" fill="rgb(255,232,150)" stroke="rgb(255,232,150)" stroke-width="1.51"></path><path d="M1124,-103L925,-55L1115,74Z" fill="rgb(255,229,140)" stroke="rgb(255,229,140)" stroke-width="1.51"></path><path d="M232,520L270,681L419,618Z" fill="rgb(255,227,130)" stroke="rgb(255,227,130)" stroke-width="1.51"></path><path d="M232,520L79,685L270,681Z" fill="rgb(255,228,134)" stroke="rgb(255,228,134)" stroke-width="1.51"></path><path d="M132,185L135,386L238,311Z" fill="rgb(255,234,158)" stroke="rgb(255,234,158)" stroke-width="1.51"></path><path d="M1270,-15L1124,-103L1115,74Z" fill="rgb(255,228,135)" stroke="rgb(255,228,135)" stroke-width="1.51"></path><path d="M267,84L132,185L194,198Z" fill="rgb(255,236,166)" stroke="rgb(255,236,166)" stroke-width="1.51"></path><path d="M194,198L132,185L238,311Z" fill="rgb(255,235,161)" stroke="rgb(255,235,161)" stroke-width="1.51"></path><path d="M313,-163L388,-4L439,-59Z" fill="rgb(255,237,168)" stroke="rgb(255,237,168)" stroke-width="1.51"></path><path d="M1092,843L1140,736L976,640Z" fill="rgb(255,216,86)" stroke="rgb(255,216,86)" stroke-width="1.51"></path><path d="M1102,513L1289,522L1193,355Z" fill="rgb(255,220,101)" stroke="rgb(255,220,101)" stroke-width="1.51"></path><path d="M1193,355L1316,184L1180,240Z" fill="rgb(255,223,114)" stroke="rgb(255,223,114)" stroke-width="1.51"></path><path d="M816,812L933,877L976,640Z" fill="rgb(255,217,91)" stroke="rgb(255,217,91)" stroke-width="1.51"></path><path d="M865,917L933,877L816,812Z" fill="rgb(255,216,86)" stroke="rgb(255,216,86)" stroke-width="1.51"></path><path d="M129,18L132,185L267,84Z" fill="rgb(255,237,170)" stroke="rgb(255,237,170)" stroke-width="1.51"></path><path d="M1287,666L1289,522L1102,513Z" fill="rgb(255,217,92)" stroke="rgb(255,217,92)" stroke-width="1.51"></path><path d="M688,938L816,812L684,783Z" fill="rgb(255,218,94)" stroke="rgb(255,218,94)" stroke-width="1.51"></path><path d="M1251,156L1270,-15L1115,74Z" fill="rgb(255,226,128)" stroke="rgb(255,226,128)" stroke-width="1.51"></path><path d="M1429,413L1316,184L1193,355Z" fill="rgb(255,221,107)" stroke="rgb(255,221,107)" stroke-width="1.51"></path><path d="M511,836L688,938L684,783Z" fill="rgb(255,219,99)" stroke="rgb(255,219,99)" stroke-width="1.51"></path><path d="M1316,184L1317,160L1251,156Z" fill="rgb(255,224,118)" stroke="rgb(255,224,118)" stroke-width="1.51"></path><path d="M610,-205L313,-163L574,-139Z" fill="rgb(255,235,163)" stroke="rgb(255,235,163)" stroke-width="1.51"></path><path d="M865,917L860,935L933,877Z" fill="rgb(255,216,83)" stroke="rgb(255,216,83)" stroke-width="1.51"></path><path d="M933,877L1092,843L976,640Z" fill="rgb(255,216,85)" stroke="rgb(255,216,85)" stroke-width="1.51"></path><path d="M688,938L860,935L865,917Z" fill="rgb(255,216,87)" stroke="rgb(255,216,87)" stroke-width="1.51"></path><path d="M294,846L433,887L419,618Z" fill="rgb(255,223,115)" stroke="rgb(255,223,115)" stroke-width="1.51"></path><path d="M511,836L623,1065L688,938Z" fill="rgb(255,219,96)" stroke="rgb(255,219,96)" stroke-width="1.51"></path><path d="M1289,522L1335,472L1193,355Z" fill="rgb(255,219,98)" stroke="rgb(255,219,98)" stroke-width="1.51"></path><path d="M1316,184L1473,58L1317,160Z" fill="rgb(255,223,117)" stroke="rgb(255,223,117)" stroke-width="1.51"></path><path d="M1452,568L1335,472L1289,522Z" fill="rgb(255,217,89)" stroke="rgb(255,217,89)" stroke-width="1.51"></path><path d="M1140,736L1287,666L1102,513Z" fill="rgb(255,217,89)" stroke="rgb(255,217,89)" stroke-width="1.51"></path><path d="M1042,954L1092,843L933,877Z" fill="rgb(255,214,76)" stroke="rgb(255,214,76)" stroke-width="1.51"></path><path d="M1317,160L1270,-15L1251,156Z" fill="rgb(255,225,123)" stroke="rgb(255,225,123)" stroke-width="1.51"></path><path d="M179,-157L129,18L217,6Z" fill="rgb(255,239,177)" stroke="rgb(255,239,177)" stroke-width="1.51"></path><path d="M217,6L129,18L267,84Z" fill="rgb(255,238,173)" stroke="rgb(255,238,173)" stroke-width="1.51"></path><path d="M-30,352L58,511L135,386Z" fill="rgb(255,233,154)" stroke="rgb(255,233,154)" stroke-width="1.51"></path><path d="M1206,825L1287,666L1140,736Z" fill="rgb(255,215,79)" stroke="rgb(255,215,79)" stroke-width="1.51"></path><path d="M294,846L382,902L433,887Z" fill="rgb(255,222,109)" stroke="rgb(255,222,109)" stroke-width="1.51"></path><path d="M451,1036L623,1065L511,836Z" fill="rgb(255,219,100)" stroke="rgb(255,219,100)" stroke-width="1.51"></path><path d="M270,681L294,846L419,618Z" fill="rgb(255,225,122)" stroke="rgb(255,225,122)" stroke-width="1.51"></path><path d="M153,814L294,846L270,681Z" fill="rgb(255,225,121)" stroke="rgb(255,225,121)" stroke-width="1.51"></path><path d="M1242,-199L1089,-249L1124,-103Z" fill="rgb(255,228,136)" stroke="rgb(255,228,136)" stroke-width="1.51"></path><path d="M1124,-103L1089,-249L1006,-160Z" fill="rgb(255,229,139)" stroke="rgb(255,229,139)" stroke-width="1.51"></path><path d="M1006,-160L1089,-249L775,-148Z" fill="rgb(255,230,144)" stroke="rgb(255,230,144)" stroke-width="1.51"></path><path d="M135,386L58,511L232,520Z" fill="rgb(255,231,146)" stroke="rgb(255,231,146)" stroke-width="1.51"></path><path d="M-30,352L135,386L132,185Z" fill="rgb(255,234,160)" stroke="rgb(255,234,160)" stroke-width="1.51"></path><path d="M1092,843L1206,825L1140,736Z" fill="rgb(255,214,77)" stroke="rgb(255,214,77)" stroke-width="1.51"></path><path d="M1162,900L1206,825L1092,843Z" fill="rgb(255,213,72)" stroke="rgb(255,213,72)" stroke-width="1.51"></path><path d="M973,1131L1042,954L860,935Z" fill="rgb(255,215,79)" stroke="rgb(255,215,79)" stroke-width="1.51"></path><path d="M860,935L1042,954L933,877Z" fill="rgb(255,215,79)" stroke="rgb(255,215,79)" stroke-width="1.51"></path><path d="M102,-192L179,-157L313,-163Z" fill="rgb(255,239,176)" stroke="rgb(255,239,176)" stroke-width="1.51"></path><path d="M313,-163L179,-157L217,6Z" fill="rgb(255,238,174)" stroke="rgb(255,238,174)" stroke-width="1.51"></path><path d="M1335,472L1429,413L1193,355Z" fill="rgb(255,219,99)" stroke="rgb(255,219,99)" stroke-width="1.51"></path><path d="M1317,160L1387,-25L1270,-15Z" fill="rgb(255,226,126)" stroke="rgb(255,226,126)" stroke-width="1.51"></path><path d="M1452,568L1429,413L1335,472Z" fill="rgb(255,217,90)" stroke="rgb(255,217,90)" stroke-width="1.51"></path><path d="M1452,568L1289,522L1287,666Z" fill="rgb(255,216,85)" stroke="rgb(255,216,85)" stroke-width="1.51"></path><path d="M1042,954L1162,900L1092,843Z" fill="rgb(255,213,71)" stroke="rgb(255,213,71)" stroke-width="1.51"></path><path d="M58,511L79,685L232,520Z" fill="rgb(255,229,141)" stroke="rgb(255,229,141)" stroke-width="1.51"></path><path d="M1270,-15L1242,-199L1124,-103Z" fill="rgb(255,228,133)" stroke="rgb(255,228,133)" stroke-width="1.51"></path><path d="M1387,-25L1242,-199L1270,-15Z" fill="rgb(255,227,129)" stroke="rgb(255,227,129)" stroke-width="1.51"></path><path d="M58,511L-60,552L79,685Z" fill="rgb(255,230,144)" stroke="rgb(255,230,144)" stroke-width="1.51"></path><path d="M-51,82L-30,352L132,185Z" fill="rgb(255,237,170)" stroke="rgb(255,237,170)" stroke-width="1.51"></path><path d="M-51,82L132,185L129,18Z" fill="rgb(255,238,175)" stroke="rgb(255,238,175)" stroke-width="1.51"></path><path d="M79,685L153,814L270,681Z" fill="rgb(255,226,128)" stroke="rgb(255,226,128)" stroke-width="1.51"></path><path d="M413,1027L433,887L382,902Z" fill="rgb(255,221,105)" stroke="rgb(255,221,105)" stroke-width="1.51"></path><path d="M688,938L818,1089L860,935Z" fill="rgb(255,217,87)" stroke="rgb(255,217,87)" stroke-width="1.51"></path><path d="M451,1036L511,836L433,887Z" fill="rgb(255,220,102)" stroke="rgb(255,220,102)" stroke-width="1.51"></path><path d="M451,1036L433,887L413,1027Z" fill="rgb(255,220,104)" stroke="rgb(255,220,104)" stroke-width="1.51"></path><path d="M1473,58L1387,-25L1317,160Z" fill="rgb(255,225,121)" stroke="rgb(255,225,121)" stroke-width="1.51"></path><path d="M413,1027L382,902L287,1114Z" fill="rgb(255,221,107)" stroke="rgb(255,221,107)" stroke-width="1.51"></path><path d="M188,923L382,902L294,846Z" fill="rgb(255,222,111)" stroke="rgb(255,222,111)" stroke-width="1.51"></path><path d="M179,-157L84,-124L129,18Z" fill="rgb(255,239,179)" stroke="rgb(255,239,179)" stroke-width="1.51"></path><path d="M623,1065L818,1089L688,938Z" fill="rgb(255,217,91)" stroke="rgb(255,217,91)" stroke-width="1.51"></path><path d="M1042,954L1144,1145L1162,900Z" fill="rgb(255,213,70)" stroke="rgb(255,213,70)" stroke-width="1.51"></path><path d="M1564,181L1473,58L1316,184Z" fill="rgb(255,223,113)" stroke="rgb(255,223,113)" stroke-width="1.51"></path><path d="M1429,678L1452,568L1287,666Z" fill="rgb(255,215,78)" stroke="rgb(255,215,78)" stroke-width="1.51"></path><path d="M1429,678L1287,666L1344,838Z" fill="rgb(255,214,72)" stroke="rgb(255,214,72)" stroke-width="1.51"></path><path d="M1344,838L1287,666L1206,825Z" fill="rgb(255,213,72)" stroke="rgb(255,213,72)" stroke-width="1.51"></path><path d="M179,-157L102,-192L84,-124Z" fill="rgb(255,239,179)" stroke="rgb(255,239,179)" stroke-width="1.51"></path><path d="M610,-205L102,-192L313,-163Z" fill="rgb(255,237,170)" stroke="rgb(255,237,170)" stroke-width="1.51"></path><path d="M1089,-249L102,-192L610,-205Z" fill="rgb(255,234,159)" stroke="rgb(255,234,159)" stroke-width="1.51"></path><path d="M1541,332L1316,184L1429,413Z" fill="rgb(255,220,102)" stroke="rgb(255,220,102)" stroke-width="1.51"></path><path d="M1387,-25L1423,-208L1242,-199Z" fill="rgb(255,226,127)" stroke="rgb(255,226,127)" stroke-width="1.51"></path><path d="M153,814L188,923L294,846Z" fill="rgb(255,223,117)" stroke="rgb(255,223,117)" stroke-width="1.51"></path><path d="M95,969L188,923L153,814Z" fill="rgb(255,224,117)" stroke="rgb(255,224,117)" stroke-width="1.51"></path><path d="M-158,-22L-51,82L-120,-115Z" fill="rgb(255,241,184)" stroke="rgb(255,241,184)" stroke-width="1.51"></path><path d="M84,-124L-51,82L129,18Z" fill="rgb(255,240,182)" stroke="rgb(255,240,182)" stroke-width="1.51"></path><path d="M-30,352L-60,552L58,511Z" fill="rgb(255,232,152)" stroke="rgb(255,232,152)" stroke-width="1.51"></path><path d="M79,685L36,828L153,814Z" fill="rgb(255,226,128)" stroke="rgb(255,226,128)" stroke-width="1.51"></path><path d="M-164,386L-60,552L-30,352Z" fill="rgb(255,233,155)" stroke="rgb(255,233,155)" stroke-width="1.51"></path><path d="M1162,900L1344,838L1206,825Z" fill="rgb(255,213,68)" stroke="rgb(255,213,68)" stroke-width="1.51"></path><path d="M1446,898L1344,838L1392,1004Z" fill="rgb(255,210,54)" stroke="rgb(255,210,54)" stroke-width="1.51"></path><path d="M1680,439L1541,332L1429,413Z" fill="rgb(255,218,95)" stroke="rgb(255,218,95)" stroke-width="1.51"></path><path d="M1680,439L1429,413L1452,568Z" fill="rgb(255,217,89)" stroke="rgb(255,217,89)" stroke-width="1.51"></path><path d="M-51,82L-130,295L-30,352Z" fill="rgb(255,236,168)" stroke="rgb(255,236,168)" stroke-width="1.51"></path><path d="M-66,809L36,828L79,685Z" fill="rgb(255,227,132)" stroke="rgb(255,227,132)" stroke-width="1.51"></path><path d="M818,1089L973,1131L860,935Z" fill="rgb(255,216,83)" stroke="rgb(255,216,83)" stroke-width="1.51"></path><path d="M287,1114L973,1131L818,1089Z" fill="rgb(255,218,92)" stroke="rgb(255,218,92)" stroke-width="1.51"></path><path d="M287,1114L818,1089L623,1065Z" fill="rgb(255,219,98)" stroke="rgb(255,219,98)" stroke-width="1.51"></path><path d="M1464,759L1516,622L1429,678Z" fill="rgb(255,213,71)" stroke="rgb(255,213,71)" stroke-width="1.51"></path><path d="M1429,678L1516,622L1452,568Z" fill="rgb(255,214,77)" stroke="rgb(255,214,77)" stroke-width="1.51"></path><path d="M1615,241L1564,181L1541,332Z" fill="rgb(255,221,105)" stroke="rgb(255,221,105)" stroke-width="1.51"></path><path d="M1541,332L1564,181L1316,184Z" fill="rgb(255,221,107)" stroke="rgb(255,221,107)" stroke-width="1.51"></path><path d="M1344,838L1464,759L1429,678Z" fill="rgb(255,213,67)" stroke="rgb(255,213,67)" stroke-width="1.51"></path><path d="M1446,898L1464,759L1344,838Z" fill="rgb(255,211,60)" stroke="rgb(255,211,60)" stroke-width="1.51"></path><path d="M1581,-101L1387,-25L1473,58Z" fill="rgb(255,225,123)" stroke="rgb(255,225,123)" stroke-width="1.51"></path><path d="M1581,-101L1423,-208L1387,-25Z" fill="rgb(255,225,123)" stroke="rgb(255,225,123)" stroke-width="1.51"></path><path d="M1242,-199L1423,-208L1089,-249Z" fill="rgb(255,227,131)" stroke="rgb(255,227,131)" stroke-width="1.51"></path><path d="M-60,552L-127,636L79,685Z" fill="rgb(255,230,142)" stroke="rgb(255,230,142)" stroke-width="1.51"></path><path d="M-130,295L-164,386L-30,352Z" fill="rgb(255,235,161)" stroke="rgb(255,235,161)" stroke-width="1.51"></path><path d="M-284,212L-164,386L-130,295Z" fill="rgb(255,236,164)" stroke="rgb(255,236,164)" stroke-width="1.51"></path><path d="M36,828L95,969L153,814Z" fill="rgb(255,225,121)" stroke="rgb(255,225,121)" stroke-width="1.51"></path><path d="M188,923L287,1114L382,902Z" fill="rgb(255,222,111)" stroke="rgb(255,222,111)" stroke-width="1.51"></path><path d="M413,1027L287,1114L451,1036Z" fill="rgb(255,221,106)" stroke="rgb(255,221,106)" stroke-width="1.51"></path><path d="M-63,894L95,969L36,828Z" fill="rgb(255,225,123)" stroke="rgb(255,225,123)" stroke-width="1.51"></path><path d="M-162,521L-127,636L-60,552Z" fill="rgb(255,231,146)" stroke="rgb(255,231,146)" stroke-width="1.51"></path><path d="M-164,386L-162,521L-60,552Z" fill="rgb(255,232,151)" stroke="rgb(255,232,151)" stroke-width="1.51"></path><path d="M95,969L287,1114L188,923Z" fill="rgb(255,223,115)" stroke="rgb(255,223,115)" stroke-width="1.51"></path><path d="M451,1036L287,1114L623,1065Z" fill="rgb(255,220,103)" stroke="rgb(255,220,103)" stroke-width="1.51"></path><path d="M1564,181L1607,114L1473,58Z" fill="rgb(255,223,115)" stroke="rgb(255,223,115)" stroke-width="1.51"></path><path d="M1680,439L1615,241L1541,332Z" fill="rgb(255,219,99)" stroke="rgb(255,219,99)" stroke-width="1.51"></path><path d="M1615,241L1607,114L1564,181Z" fill="rgb(255,222,111)" stroke="rgb(255,222,111)" stroke-width="1.51"></path><path d="M-127,636L-66,809L79,685Z" fill="rgb(255,228,136)" stroke="rgb(255,228,136)" stroke-width="1.51"></path><path d="M287,1114L1144,1145L973,1131Z" fill="rgb(255,216,87)" stroke="rgb(255,216,87)" stroke-width="1.51"></path><path d="M973,1131L1144,1145L1042,954Z" fill="rgb(255,214,74)" stroke="rgb(255,214,74)" stroke-width="1.51"></path><path d="M1392,1004L1344,838L1162,900Z" fill="rgb(255,211,60)" stroke="rgb(255,211,60)" stroke-width="1.51"></path><path d="M1464,759L1589,707L1516,622Z" fill="rgb(255,213,70)" stroke="rgb(255,213,70)" stroke-width="1.51"></path><path d="M1516,622L1680,439L1452,568Z" fill="rgb(255,216,83)" stroke="rgb(255,216,83)" stroke-width="1.51"></path><path d="M-51,82L-199,52L-130,295Z" fill="rgb(255,238,175)" stroke="rgb(255,238,175)" stroke-width="1.51"></path><path d="M-120,-115L-51,82L84,-124Z" fill="rgb(255,241,184)" stroke="rgb(255,241,184)" stroke-width="1.51"></path><path d="M-110,-139L-120,-115L84,-124Z" fill="rgb(255,241,184)" stroke="rgb(255,241,184)" stroke-width="1.51"></path><path d="M102,-192L-110,-139L84,-124Z" fill="rgb(255,240,183)" stroke="rgb(255,240,183)" stroke-width="1.51"></path><path d="M-158,-22L-199,52L-51,82Z" fill="rgb(255,240,182)" stroke="rgb(255,240,182)" stroke-width="1.51"></path><path d="M-164,386L-283,668L-162,521Z" fill="rgb(255,232,149)" stroke="rgb(255,232,149)" stroke-width="1.51"></path><path d="M-254,-153L-199,52L-158,-22Z" fill="rgb(255,241,184)" stroke="rgb(255,241,184)" stroke-width="1.51"></path><path d="M-254,-153L-158,-22L-120,-115Z" fill="rgb(255,241,184)" stroke="rgb(255,241,184)" stroke-width="1.51"></path><path d="M1707,820L1589,707L1693,891Z" fill="rgb(255,211,60)" stroke="rgb(255,211,60)" stroke-width="1.51"></path><path d="M1693,891L1589,707L1464,759Z" fill="rgb(255,212,63)" stroke="rgb(255,212,63)" stroke-width="1.51"></path><path d="M1273,1111L1392,1004L1162,900Z" fill="rgb(255,211,62)" stroke="rgb(255,211,62)" stroke-width="1.51"></path><path d="M1633,-80L1581,-101L1473,58Z" fill="rgb(255,225,123)" stroke="rgb(255,225,123)" stroke-width="1.51"></path><path d="M1144,1145L1273,1111L1162,900Z" fill="rgb(255,212,66)" stroke="rgb(255,212,66)" stroke-width="1.51"></path><path d="M-61,1028L-63,894L-239,939Z" fill="rgb(255,225,123)" stroke="rgb(255,225,123)" stroke-width="1.51"></path><path d="M-245,834L-63,894L-66,809Z" fill="rgb(255,226,127)" stroke="rgb(255,226,127)" stroke-width="1.51"></path><path d="M-66,809L-63,894L36,828Z" fill="rgb(255,226,127)" stroke="rgb(255,226,127)" stroke-width="1.51"></path><path d="M95,969L44,1106L287,1114Z" fill="rgb(255,224,117)" stroke="rgb(255,224,117)" stroke-width="1.51"></path><path d="M1696,547L1680,439L1516,622Z" fill="rgb(255,216,84)" stroke="rgb(255,216,84)" stroke-width="1.51"></path><path d="M1615,241L1680,439L1607,114Z" fill="rgb(255,221,105)" stroke="rgb(255,221,105)" stroke-width="1.51"></path><path d="M1607,114L1633,-80L1473,58Z" fill="rgb(255,225,121)" stroke="rgb(255,225,121)" stroke-width="1.51"></path><path d="M1423,-208L1523,-223L1089,-249Z" fill="rgb(255,226,127)" stroke="rgb(255,226,127)" stroke-width="1.51"></path><path d="M1581,-101L1523,-223L1423,-208Z" fill="rgb(255,225,123)" stroke="rgb(255,225,123)" stroke-width="1.51"></path><path d="M1581,-101L1614,-209L1523,-223Z" fill="rgb(255,225,123)" stroke="rgb(255,225,123)" stroke-width="1.51"></path><path d="M1680,439L1633,-80L1607,114Z" fill="rgb(255,222,112)" stroke="rgb(255,222,112)" stroke-width="1.51"></path><path d="M1680,439L1696,547L1633,-80Z" fill="rgb(255,220,102)" stroke="rgb(255,220,102)" stroke-width="1.51"></path><path d="M1589,707L1696,547L1516,622Z" fill="rgb(255,214,77)" stroke="rgb(255,214,77)" stroke-width="1.51"></path><path d="M1707,820L1696,547L1589,707Z" fill="rgb(255,213,71)" stroke="rgb(255,213,71)" stroke-width="1.51"></path><path d="M-199,52L-284,212L-130,295Z" fill="rgb(255,237,172)" stroke="rgb(255,237,172)" stroke-width="1.51"></path><path d="M-245,834L-66,809L-127,636Z" fill="rgb(255,228,133)" stroke="rgb(255,228,133)" stroke-width="1.51"></path><path d="M-254,-153L-284,212L-199,52Z" fill="rgb(255,240,182)" stroke="rgb(255,240,182)" stroke-width="1.51"></path><path d="M-61,1028L44,1106L95,969Z" fill="rgb(255,225,122)" stroke="rgb(255,225,122)" stroke-width="1.51"></path><path d="M287,1114L-200,1109L1144,1145Z" fill="rgb(255,221,105)" stroke="rgb(255,221,105)" stroke-width="1.51"></path><path d="M1633,-80L1614,-209L1581,-101Z" fill="rgb(255,225,123)" stroke="rgb(255,225,123)" stroke-width="1.51"></path><path d="M-63,894L-61,1028L95,969Z" fill="rgb(255,225,123)" stroke="rgb(255,225,123)" stroke-width="1.51"></path><path d="M-283,668L-127,636L-162,521Z" fill="rgb(255,230,143)" stroke="rgb(255,230,143)" stroke-width="1.51"></path><path d="M-284,212L-283,668L-164,386Z" fill="rgb(255,233,156)" stroke="rgb(255,233,156)" stroke-width="1.51"></path><path d="M102,-192L-254,-153L-110,-139Z" fill="rgb(255,241,184)" stroke="rgb(255,241,184)" stroke-width="1.51"></path><path d="M-110,-139L-254,-153L-120,-115Z" fill="rgb(255,241,184)" stroke="rgb(255,241,184)" stroke-width="1.51"></path><path d="M1676,1045L1693,891L1446,898Z" fill="rgb(255,210,51)" stroke="rgb(255,210,51)" stroke-width="1.51"></path><path d="M1273,1111L1415,1145L1392,1004Z" fill="rgb(255,211,56)" stroke="rgb(255,211,56)" stroke-width="1.51"></path><path d="M1144,1145L1415,1145L1273,1111Z" fill="rgb(255,211,61)" stroke="rgb(255,211,61)" stroke-width="1.51"></path><path d="M-283,668L-245,834L-127,636Z" fill="rgb(255,228,136)" stroke="rgb(255,228,136)" stroke-width="1.51"></path><path d="M1693,891L1464,759L1446,898Z" fill="rgb(255,211,56)" stroke="rgb(255,211,56)" stroke-width="1.51"></path><path d="M1576,1096L1446,898L1392,1004Z" fill="rgb(255,210,51)" stroke="rgb(255,210,51)" stroke-width="1.51"></path><path d="M-245,834L-239,939L-63,894Z" fill="rgb(255,225,124)" stroke="rgb(255,225,124)" stroke-width="1.51"></path><path d="M-61,1028L-200,1109L44,1106Z" fill="rgb(255,225,123)" stroke="rgb(255,225,123)" stroke-width="1.51"></path><path d="M-283,668L-239,939L-245,834Z" fill="rgb(255,227,129)" stroke="rgb(255,227,129)" stroke-width="1.51"></path><path d="M1415,1145L1576,1096L1392,1004Z" fill="rgb(255,210,51)" stroke="rgb(255,210,51)" stroke-width="1.51"></path><path d="M1576,1096L1676,1045L1446,898Z" fill="rgb(255,210,51)" stroke="rgb(255,210,51)" stroke-width="1.51"></path><path d="M1693,891L1676,1045L1707,820Z" fill="rgb(255,210,51)" stroke="rgb(255,210,51)" stroke-width="1.51"></path><path d="M-239,939L-200,1109L-61,1028Z" fill="rgb(255,225,123)" stroke="rgb(255,225,123)" stroke-width="1.51"></path><path d="M44,1106L-200,1109L287,1114Z" fill="rgb(255,225,121)" stroke="rgb(255,225,121)" stroke-width="1.51"></path></svg>